<svg xmlns="http://www.w3.org/2000/svg" width="330" height="210" viewBox="0 0 330 210">
	<defs>
		<linearGradient id="bg2" x1="0" y1="0" x2="1" y2="1">
			<stop offset="0%" stop-color="#0f766e" />
			<stop offset="100%" stop-color="#134e4a" />
		</linearGradient>
	</defs>
	<rect width="330" height="210" rx="12" fill="url(#bg2)" />
	<g transform="translate(24,28)">
		<rect width="120" height="120" rx="60" fill="#34d399" opacity="0.15" />
		<path d="M60 20 C80 20 96 36 96 56 C96 84 60 108 60 108 C60 108 24 84 24 56 C24 36 40 20 60 20 Z" fill="#5eead4" opacity="0.9" />
	</g>
	<rect x="160" y="30" width="140" height="10" rx="5" fill="#ffffff" opacity="0.4" />
	<rect x="160" y="50" width="110" height="8" rx="4" fill="#ffffff" opacity="0.25" />
	<rect x="160" y="70" width="90" height="8" rx="4" fill="#ffffff" opacity="0.2" />
	<rect x="160" y="96" width="70" height="24" rx="6" fill="#34d399" opacity="0.85" />
</svg>
