<svg xmlns="http://www.w3.org/2000/svg" width="475" height="275" viewBox="0 0 475 275">
	<defs>
		<linearGradient id="bgs" x1="0" y1="0" x2="1" y2="1">
			<stop offset="0%" stop-color="#1e3a8a" />
			<stop offset="100%" stop-color="#1e293b" />
		</linearGradient>
	</defs>
	<rect width="475" height="275" rx="14" fill="url(#bgs)" />
	<circle cx="420" cy="30" r="90" fill="#38bdf8" opacity="0.12" />
	<circle cx="50" cy="245" r="70" fill="#38bdf8" opacity="0.10" />
	<g transform="translate(40,40)">
		<rect width="300" height="150" rx="10" fill="#152238" opacity="0.9" />
		<circle cx="16" cy="16" r="4" fill="#fca5a5" />
		<circle cx="30" cy="16" r="4" fill="#fde68a" />
		<circle cx="44" cy="16" r="4" fill="#86efac" />
		<rect x="14" y="34" width="180" height="10" rx="5" fill="#7dd3fc" opacity="0.85" />
		<rect x="14" y="54" width="260" height="8" rx="4" fill="#ffffff" opacity="0.35" />
		<rect x="14" y="70" width="220" height="8" rx="4" fill="#ffffff" opacity="0.25" />
		<rect x="14" y="96" width="80" height="28" rx="6" fill="#38bdf8" opacity="0.9" />
		<rect x="104" y="96" width="80" height="28" rx="6" fill="#ffffff" opacity="0.15" />
		<path d="M230 100 l14 14 l24 -30" stroke="#7dd3fc" stroke-width="4" fill="none" stroke-linecap="round" stroke-linejoin="round" opacity="0.8" />
	</g>
	<text x="40" y="235" font-family="Helvetica, Arial, sans-serif" font-size="22" font-weight="700" fill="#ffffff">ShareTrip</text>
	<text x="40" y="256" font-family="Helvetica, Arial, sans-serif" font-size="13" fill="#93c5fd">Scalable Booking Platform</text>
</svg>
