<svg   viewBox="0 0 626 104" fill="none" xmlns="http://www.w3.org/2000/svg">
<g clip-path="url(#clip0_5_80)">
<path d="M26.0192 6.99997C42.0962 -2.28206 61.9038 -2.28206 77.9808 6.99997C94.0577 16.282 103.962 33.4359 103.962 52C103.962 70.5641 94.0577 87.718 77.9808 97C61.9038 106.282 42.0962 106.282 26.0192 97C9.94227 87.718 0.0384521 70.5641 0.0384521 52C0.0384521 33.4359 9.94227 16.282 26.0192 6.99997Z" fill="black" fill-opacity="0.64"/>
<path d="M26.0192 6.99997C42.0962 -2.28206 61.9038 -2.28206 77.9808 6.99997C94.0577 16.282 103.962 33.4359 103.962 52C103.962 70.5641 94.0577 87.718 77.9808 97C61.9038 106.282 42.0962 106.282 26.0192 97C9.94227 87.718 0.0384521 70.5641 0.0384521 52C0.0384521 33.4359 9.94227 16.282 26.0192 6.99997Z" fill="url(#paint0_linear_5_80)" fill-opacity="0.15"/>
<path d="M26.0192 6.99997C42.0962 -2.28206 61.9038 -2.28206 77.9808 6.99997C94.0577 16.282 103.962 33.4359 103.962 52C103.962 70.5641 94.0577 87.718 77.9808 97C61.9038 106.282 42.0962 106.282 26.0192 97C9.94227 87.718 0.0384521 70.5641 0.0384521 52C0.0384521 33.4359 9.94227 16.282 26.0192 6.99997Z" fill="black" fill-opacity="0.5"/>
<path d="M0.538452 52C0.538452 33.6146 10.347 16.6257 26.2692 7.43298C42.1915 -1.75973 61.8085 -1.75973 77.7308 7.43298C93.653 16.6257 103.462 33.6146 103.462 52C103.462 70.3854 93.653 87.3743 77.7308 96.567C61.8085 105.76 42.1915 105.76 26.2692 96.567C10.347 87.3743 0.538452 70.3854 0.538452 52Z" stroke="url(#paint1_radial_5_80)" stroke-opacity="0.15"/>
<path d="M0.538452 53C0.538452 34.6146 10.347 17.6257 26.2692 8.43298C42.1915 -0.759726 61.8085 -0.759726 77.7308 8.43298C93.653 17.6257 103.462 34.6146 103.462 53C103.462 71.3854 93.653 88.3743 77.7308 97.567C61.8085 106.76 42.1915 106.76 26.2692 97.567C10.347 88.3743 0.538452 71.3854 0.538452 53Z" stroke="url(#paint2_linear_5_80)" stroke-opacity="0.5"/>
<path d="M51.8878 37.9261C44.1892 37.9261 37.9258 44.1895 37.9258 51.8881C37.9258 59.5867 44.1892 65.8501 51.8878 65.8501C59.5864 65.8501 65.8498 59.5867 65.8498 51.8881C65.8498 44.1895 59.5864 37.9261 51.8878 37.9261ZM51.8878 59.1135C47.8968 59.1135 44.6624 55.8791 44.6624 51.8881C44.6624 47.8971 47.8968 44.6627 51.8878 44.6627C55.8788 44.6627 59.1132 47.8971 59.1132 51.8881C59.1132 55.8791 55.8788 59.1135 51.8878 59.1135Z" fill="white"/>
<path fill-rule="evenodd" clip-rule="evenodd" d="M53.0581 35.633V30.42C64.3889 31.0258 73.3901 40.4066 73.3901 51.8882C73.3901 63.3698 64.3889 72.748 53.0581 73.3564V68.1434C61.5029 67.5402 68.1901 60.4838 68.1901 51.8882C68.1901 43.2926 61.5029 36.2362 53.0581 35.633ZM39.5745 62.5482C37.3359 59.9638 35.8929 56.6722 35.6355 53.0582H30.4199C30.6903 58.1152 32.7131 62.7042 35.8825 66.2376L39.5719 62.5482H39.5745ZM50.7182 73.3564V68.1434C47.1016 67.886 43.81 66.4456 41.2256 64.2044L37.5362 67.8938C41.0722 71.0658 45.6612 73.086 50.7156 73.3564H50.7182Z" fill="url(#paint3_linear_5_80)"/>
</g>
<g clip-path="url(#clip1_5_80)">
<path d="M173.719 39.0038V28.0533H120.945V39.0038H140.867V75.4175H153.797V39.0038H173.719Z" fill="currentColor"/>
<path d="M203.536 76.1431C219.764 76.1431 228.67 67.8972 228.67 54.3081V28.0533H215.74V53.0547C215.74 60.6409 211.782 64.9287 203.536 64.9287C195.29 64.9287 191.332 60.6409 191.332 53.0547V28.0533H178.403V54.3081C178.403 67.8972 187.308 76.1431 203.536 76.1431Z" fill="currentColor"/>
<path d="M248.462 59.7174H261.325L271.484 75.4175H286.327L274.848 58.3321C281.313 56.0232 285.271 50.8778 285.271 43.8853C285.271 33.7265 277.685 28.0533 266.141 28.0533H235.532V75.4175H248.462V59.7174ZM248.462 49.4925V38.8719H265.481C270.033 38.8719 272.54 40.8509 272.54 44.2152C272.54 47.3816 270.033 49.4925 265.481 49.4925H248.462Z" fill="currentColor"/>
<path d="M291.287 75.4175H325.128C335.683 75.4175 341.752 70.404 341.752 62.0262C341.752 56.419 338.189 52.593 333.967 50.8778C336.87 49.4925 340.432 46.1942 340.432 40.9828C340.432 32.605 334.495 28.0533 324.006 28.0533H291.287V75.4175ZM303.689 46.59V38.542H322.687C326.249 38.542 328.228 39.9273 328.228 42.566C328.228 45.2047 326.249 46.59 322.687 46.59H303.689ZM303.689 56.2871H323.875C327.371 56.2871 329.284 58.0022 329.284 60.5749C329.284 63.1476 327.371 64.8628 323.875 64.8628H303.689V56.2871Z" fill="currentColor"/>
<path d="M373.364 27.2617C356.806 27.2617 344.866 37.6185 344.866 51.7354C344.866 65.8523 356.806 76.2091 373.364 76.2091C389.922 76.2091 401.796 65.8523 401.796 51.7354C401.796 37.6185 389.922 27.2617 373.364 27.2617ZM373.364 38.4761C382.072 38.4761 388.602 43.6215 388.602 51.7354C388.602 59.8493 382.072 64.9947 373.364 64.9947C364.656 64.9947 358.126 59.8493 358.126 51.7354C358.126 43.6215 364.656 38.4761 373.364 38.4761Z" fill="currentColor"/>
<path d="M420.429 59.7174H433.292L443.451 75.4175H458.294L446.815 58.3321C453.28 56.0232 457.238 50.8778 457.238 43.8853C457.238 33.7265 449.652 28.0533 438.108 28.0533H407.499V75.4175H420.429V59.7174ZM420.429 49.4925V38.8719H437.448C442 38.8719 444.507 40.8509 444.507 44.2152C444.507 47.3816 442 49.4925 437.448 49.4925H420.429Z" fill="currentColor"/>
<path d="M463.254 28.0533V75.4175H509.299V64.467H475.92V56.7489H505.539V46.0622H475.92V39.0038H509.299V28.0533H463.254Z" fill="currentColor"/>
<path d="M528.46 60.3111H545.677C557.221 60.3111 564.807 54.7699 564.807 44.2152C564.807 33.5946 557.221 28.0533 545.677 28.0533H515.53V75.4175H528.46V60.3111ZM528.46 49.5585V38.8719H544.951C549.569 38.8719 552.076 40.8509 552.076 44.2152C552.076 47.5135 549.569 49.5585 544.951 49.5585H528.46Z" fill="currentColor"/>
<path d="M596.899 27.2617C580.341 27.2617 568.401 37.6185 568.401 51.7354C568.401 65.8523 580.341 76.2091 596.899 76.2091C613.456 76.2091 625.33 65.8523 625.33 51.7354C625.33 37.6185 613.456 27.2617 596.899 27.2617ZM596.899 38.4761C605.606 38.4761 612.137 43.6215 612.137 51.7354C612.137 59.8493 605.606 64.9947 596.899 64.9947C588.191 64.9947 581.66 59.8493 581.66 51.7354C581.66 43.6215 588.191 38.4761 596.899 38.4761Z" fill="currentColor"/>
</g>
<defs>
<linearGradient id="paint0_linear_5_80" x1="52" y1="-8.00003" x2="52" y2="112" gradientUnits="userSpaceOnUse">
<stop stop-color="#3286F1"/>
<stop offset="1" stop-color="#C43AC4"/>
</linearGradient>
<radialGradient id="paint1_radial_5_80" cx="0" cy="0" r="1" gradientUnits="userSpaceOnUse" gradientTransform="translate(52 -8.00002) rotate(90) scale(154.286 154.286)">
<stop stop-color="white"/>
<stop offset="1" stop-color="white"/>
</radialGradient>
<linearGradient id="paint2_linear_5_80" x1="-8.00002" y1="-7.00002" x2="18.25" y2="41.75" gradientUnits="userSpaceOnUse">
<stop stop-color="white"/>
<stop offset="1" stop-color="white" stop-opacity="0"/>
</linearGradient>
<linearGradient id="paint3_linear_5_80" x1="53.9007" y1="33.4389" x2="32.7679" y2="54.5717" gradientUnits="userSpaceOnUse">
<stop stop-color="#0096FF"/>
<stop offset="1" stop-color="#FF1E56"/>
</linearGradient>
<clipPath id="clip0_5_80">
<rect width="104" height="104" fill="white"/>
</clipPath>
<clipPath id="clip1_5_80">
<rect width="506" height="50" fill="white" transform="translate(120 27)"/>
</clipPath>
</defs>
</svg>
