<svg viewBox="0 0 619 128" fill="none" xmlns="http://www.w3.org/2000/svg">
<g filter="url(#filter0_d_7_91)">
<path d="M11.8934 19.8934C11.8934 13.266 17.266 7.8934 23.8934 7.8934H103.68C110.308 7.8934 115.68 13.266 115.68 19.8934V99.6802C115.68 106.308 110.308 111.68 103.68 111.68H23.8934C17.266 111.68 11.8934 106.308 11.8934 99.6802V19.8934Z" fill="black" fill-opacity="0.64"/>
<path d="M11.8934 19.8934C11.8934 13.266 17.266 7.8934 23.8934 7.8934H103.68C110.308 7.8934 115.68 13.266 115.68 19.8934V99.6802C115.68 106.308 110.308 111.68 103.68 111.68H23.8934C17.266 111.68 11.8934 106.308 11.8934 99.6802V19.8934Z" fill="url(#paint0_linear_7_91)" fill-opacity="0.15"/>
<path d="M11.8934 19.8934C11.8934 13.266 17.266 7.8934 23.8934 7.8934H103.68C110.308 7.8934 115.68 13.266 115.68 19.8934V99.6802C115.68 106.308 110.308 111.68 103.68 111.68H23.8934C17.266 111.68 11.8934 106.308 11.8934 99.6802V19.8934Z" fill="black" fill-opacity="0.5"/>
<path d="M23.8934 8.3934L103.68 8.39341C110.031 8.3934 115.18 13.5421 115.18 19.8934V99.6802C115.18 106.031 110.031 111.18 103.68 111.18H23.8934C17.5421 111.18 12.3934 106.031 12.3934 99.6802V19.8934C12.3934 13.5421 17.5421 8.3934 23.8934 8.3934Z" stroke="url(#paint1_radial_7_91)" stroke-opacity="0.15"/>
<path d="M23.8934 8.3934L103.68 8.39341C110.031 8.3934 115.18 13.5421 115.18 19.8934V99.6802C115.18 106.031 110.031 111.18 103.68 111.18H23.8934C17.5421 111.18 12.3934 106.031 12.3934 99.6802V19.8934C12.3934 13.5421 17.5421 8.3934 23.8934 8.3934Z" stroke="url(#paint2_linear_7_91)" stroke-opacity="0.5"/>
<path fill-rule="evenodd" clip-rule="evenodd" d="M56.5484 51.5484C55.9961 51.5484 55.5484 51.9961 55.5484 52.5484V66.4516C55.5484 67.0039 55.9961 67.4516 56.5484 67.4516H70.4516C71.0039 67.4516 71.4516 67.0039 71.4516 66.4516V52.5484C71.4516 51.9961 71.0039 51.5484 70.4516 51.5484H56.5484ZM49.916 45C49.4101 45 49 45.4101 49 45.916V73.084C49 73.5899 49.4101 74 49.916 74H77.084C77.5899 74 78 73.5899 78 73.084V45.916C78 45.4101 77.5899 45 77.084 45H49.916Z" fill="white"/>
<path fill-rule="evenodd" clip-rule="evenodd" d="M40 77V60H47V74C47 74.1502 47.0166 74.2966 47.048 74.4373L41.0678 80.4175C40.3946 79.4478 40 78.27 40 77ZM42.4651 81.8486C43.4565 82.5727 44.6783 83 46 83H63V76H49C48.7924 76 48.5923 75.9684 48.404 75.9097L42.4651 81.8486ZM65 76V83H81C84.3137 83 87 80.3137 87 77V42C87 38.6863 84.3137 36 81 36H64V43H78C79.1046 43 80 43.8954 80 45V74C80 75.1046 79.1046 76 78 76H65Z" fill="url(#paint3_linear_7_91)"/>
</g>
<g clip-path="url(#clip0_7_91)">
<path d="M185.193 47.1277V36.5608H134.268V47.1277H153.492V82.2659H165.969V47.1277H185.193Z" fill="currentColor"/>
<path d="M213.966 82.9662C229.625 82.9662 238.219 75.0091 238.219 61.8959V36.5608H225.742V60.6865C225.742 68.0069 221.923 72.1446 213.966 72.1446C206.009 72.1446 202.189 68.0069 202.189 60.6865V36.5608H189.713V61.8959C189.713 75.0091 198.306 82.9662 213.966 82.9662Z" fill="currentColor"/>
<path d="M257.318 67.1157H269.731L279.534 82.2659H293.857L282.78 65.779C289.019 63.551 292.838 58.5858 292.838 51.8382C292.838 42.0352 285.518 36.5608 274.378 36.5608H244.841V82.2659H257.318V67.1157ZM257.318 57.249V47.0004H273.741C278.133 47.0004 280.552 48.9101 280.552 52.1565C280.552 55.212 278.133 57.249 273.741 57.249H257.318Z" fill="currentColor"/>
<path d="M298.643 82.2659H331.299C341.484 82.2659 347.34 77.4281 347.34 69.3437C347.34 63.9329 343.903 60.2409 339.829 58.5858C342.63 57.249 346.067 54.0662 346.067 49.0374C346.067 40.953 340.338 36.5608 330.217 36.5608H298.643V82.2659ZM310.611 54.4482V46.6821H328.944C332.381 46.6821 334.291 48.0189 334.291 50.5651C334.291 53.1114 332.381 54.4482 328.944 54.4482H310.611ZM310.611 63.8056H330.089C333.463 63.8056 335.309 65.4607 335.309 67.9433C335.309 70.4259 333.463 72.0809 330.089 72.0809H310.611V63.8056Z" fill="currentColor"/>
<path d="M377.845 35.7969C361.868 35.7969 350.346 45.7909 350.346 59.4133C350.346 73.0358 361.868 83.0298 377.845 83.0298C393.823 83.0298 405.281 73.0358 405.281 59.4133C405.281 45.7909 393.823 35.7969 377.845 35.7969ZM377.845 46.6184C386.248 46.6184 392.55 51.5836 392.55 59.4133C392.55 67.2431 386.248 72.2083 377.845 72.2083C369.443 72.2083 363.141 67.2431 363.141 59.4133C363.141 51.5836 369.443 46.6184 377.845 46.6184Z" fill="currentColor"/>
<path d="M423.262 67.6887H439.876C451.016 67.6887 458.336 62.3415 458.336 52.1565C458.336 41.9079 451.016 36.5608 439.876 36.5608H410.785V82.2659H423.262V67.6887ZM423.262 57.3127V47.0004H439.176C443.632 47.0004 446.051 48.9101 446.051 52.1565C446.051 55.3393 443.632 57.3127 439.176 57.3127H423.262Z" fill="currentColor"/>
<path d="M475.036 36.5608L452.565 82.2659H465.806L469.943 73.6723H493.942L498.079 82.2659H511.765L489.358 36.5608H475.036ZM482.038 48.7827L489.167 63.6783H474.845L482.038 48.7827Z" fill="currentColor"/>
<path d="M509.141 59.4133C509.141 73.0358 520.535 83.0298 536.45 83.0298C549.181 83.0298 558.029 77.3007 561.53 68.0706L550.136 62.9781C548.353 68.3252 543.706 72.2083 536.45 72.2083C528.302 72.2083 521.872 67.2431 521.872 59.4133C521.872 51.5836 528.302 46.6184 536.45 46.6184C543.706 46.6184 548.353 50.5015 550.136 55.8486L561.53 50.7561C558.029 41.5259 549.181 35.7969 536.45 35.7969C520.535 35.7969 509.141 45.7909 509.141 59.4133Z" fill="currentColor"/>
<path d="M578.513 36.5608H566.037V82.2659H578.513V70.8715L586.661 63.551L602.512 82.2659H618.362L595.637 55.5303L616.771 36.5608H599.775L578.513 55.8486V36.5608Z" fill="currentColor"/>
</g>
<defs>
<filter id="filter0_d_7_91" x="0" y="0" width="128" height="128" filterUnits="userSpaceOnUse" color-interpolation-filters="sRGB">
<feFlood flood-opacity="0" result="BackgroundImageFix"/>
<feColorMatrix in="SourceAlpha" type="matrix" values="0 0 0 0 0 0 0 0 0 0 0 0 0 0 0 0 0 0 127 0" result="hardAlpha"/>
<feOffset dy="4"/>
<feGaussianBlur stdDeviation="2"/>
<feComposite in2="hardAlpha" operator="out"/>
<feColorMatrix type="matrix" values="0 0 0 0 0 0 0 0 0 0 0 0 0 0 0 0 0 0 0.25 0"/>
<feBlend mode="normal" in2="BackgroundImageFix" result="effect1_dropShadow_7_91"/>
<feBlend mode="normal" in="SourceGraphic" in2="effect1_dropShadow_7_91" result="shape"/>
</filter>
<linearGradient id="paint0_linear_7_91" x1="11.8934" y1="7.8934" x2="115.68" y2="111.68" gradientUnits="userSpaceOnUse">
<stop stop-color="#3286F1"/>
<stop offset="1" stop-color="#C43AC4"/>
</linearGradient>
<radialGradient id="paint1_radial_7_91" cx="0" cy="0" r="1" gradientUnits="userSpaceOnUse" gradientTransform="translate(11.8934 7.89341) rotate(45) scale(188.713)">
<stop stop-color="white"/>
<stop offset="1" stop-color="white"/>
</radialGradient>
<linearGradient id="paint2_linear_7_91" x1="-40" y1="59.7868" x2="24.8667" y2="79.2468" gradientUnits="userSpaceOnUse">
<stop stop-color="white"/>
<stop offset="1" stop-color="white" stop-opacity="0"/>
</linearGradient>
<linearGradient id="paint3_linear_7_91" x1="65.8108" y1="39.3047" x2="42.6787" y2="62.28" gradientUnits="userSpaceOnUse">
<stop stop-color="#0096FF"/>
<stop offset="1" stop-color="#FF1E56"/>
</linearGradient>
<clipPath id="clip0_7_91">
<rect width="485" height="49" fill="white" transform="translate(134 35)"/>
</clipPath>
</defs>
</svg>
